<?xml version="1.0" standalone="no"?>
<!DOCTYPE svg PUBLIC "-//W3C//DTD SVG 20010904//EN"
 "http://www.w3.org/TR/2001/REC-SVG-20010904/DTD/svg10.dtd">
<svg version="1.0" xmlns="http://www.w3.org/2000/svg"
 width="700.000000pt" height="700.000000pt" viewBox="0 0 700.000000 700.000000"
 preserveAspectRatio="xMidYMid meet">
<metadata>
Created by potrace 1.14, written by Peter Selinger 2001-2017
</metadata>
<g transform="translate(0.000000,700.000000) scale(0.100000,-0.100000)"
fill="#000000" stroke="none">
<path d="M0 3500 l0 -3500 3500 0 3500 0 0 3500 0 3500 -3500 0 -3500 0 0
-3500z m5472 1816 c372 -68 663 -278 821 -591 56 -112 127 -369 127 -461 l0
-24 -319 0 -318 0 -7 59 c-31 276 -169 447 -401 496 -94 20 -293 20 -370 0
-193 -50 -323 -177 -396 -388 -50 -145 -70 -293 -76 -567 -16 -716 98 -1027
418 -1142 56 -20 83 -22 224 -23 141 0 169 3 235 24 131 41 199 87 262 179 36
53 84 179 93 247 3 28 8 60 11 73 l4 22 320 0 320 0 -6 -47 c-33 -282 -127
-491 -301 -674 -244 -255 -608 -375 -1061 -347 -447 27 -786 246 -986 638
-101 197 -156 415 -177 695 -14 193 -6 526 16 675 74 494 306 855 671 1042
133 68 248 103 439 132 63 9 373 -3 457 -18z m-2947 -26 c442 -42 756 -242
917 -586 71 -152 82 -212 82 -439 0 -189 -2 -205 -28 -289 -51 -167 -115 -274
-233 -387 -157 -152 -352 -242 -618 -285 -74 -12 -197 -18 -477 -21 l-378 -5
0 -544 0 -544 -320 0 -320 0 0 1555 0 1555 633 0 c357 0 680 -5 742 -10z"/>
<path d="M1792 4293 l3 -488 335 0 c367 0 421 6 527 56 188 89 271 309 211
559 -38 155 -149 275 -308 331 -62 22 -80 24 -418 27 l-352 4 2 -489z"/>
</g>
</svg>
